:FULLY-SPECIFIED
:FORCE-ALL-JOINTS-BE-3DOF
:DEGREES
1
root 6.24314 16.836 -28.1378 9.0217 -2.52979 -3.05774
lfemur -20.3712 2.30257 -19.9954
ltibia 35.927 0 0
lfoot -38.654 3.93715 0
ltoes 38.9541 0 0
rfemur -19.4747 0.22019 19.5256
rtibia 36.0342 0 0
rfoot -30.3779 -10.4967 0
rtoes 21.4483 0 0
lowerback -2.05144 3.66971 -5.03766
upperback -2.66728 5.00355 3.49279
thorax -2.36397 2.67023 6.42441
lowerneck -9.84699 -2.36864 1.94815
upperneck -1.37933 -3.32542 -1.65382
head 1.16433 -1.69823 -0.975663
lclavicle -1.65488e-14 -3.69739e-14 0
lhumerus -41.7253 -10.8128 99.8312
lradius 34.5094 0 0
lwrist 2.17521 0 0
lhand -10.5949 9.65639 0
lfingers 7.12502 0 0
lthumb 15.4107 39.062 0
rclavicle -1.65488e-14 -3.69739e-14 0
rhumerus -43.273 -4.86223 -84.2703
rradius 40.4763 0 0
rwrist 9.89469 0 0
rhand -23.7965 -22.476 0
rfingers 7.12502 0 0
rthumb 2.67393 -52.439 0
2
root 6.23523 16.8387 -28.1346 9.05195 -2.50679 -3.03582
lfemur -20.3517 2.27715 -19.9852
ltibia 35.8466 0 0
lfoot -38.5689 3.9472 0
ltoes 38.8991 0 0
rfemur -19.3589 0.490617 19.5286
rtibia 35.8136 0 0
rfoot -30.2712 -10.8119 0
rtoes 21.2586 0 0
lowerback -2.16962 3.6282 -4.90855
upperback -2.64208 4.94696 3.41545
thorax -2.24851 2.63539 6.27979
lowerneck -9.84081 -2.34391 1.96284
upperneck -1.42243 -3.29502 -1.58786
head 1.15055 -1.682 -0.955698
lclavicle -1.22269e-14 -3.44547e-14 0
lhumerus -41.7234 -10.8464 99.7216
lradius 34.5797 0 0
lwrist 2.25178 0 0
lhand -10.6202 9.45258 0
lfingers 7.12502 0 0
lthumb 15.3863 38.86 0
rclavicle -1.22269e-14 -3.44547e-14 0
rhumerus -43.1837 -4.87026 -84.4097
rradius 40.4473 0 0
rwrist 9.92831 0 0
rhand -23.9465 -22.3536 0
rfingers 7.12502 0 0
rthumb 2.52902 -52.3174 0
3
root 6.2279 16.8415 -28.1313 9.08015 -2.48571 -3.0162
lfemur -20.3305 2.25333 -19.975
ltibia 35.7674 0 0
lfoot -38.4899 3.95704 0
ltoes 38.8538 0 0
rfemur -19.2436 0.760053 19.5321
rtibia 35.5967 0 0
rfoot -30.1683 -11.1214 0
rtoes 21.0948 0 0
lowerback -2.28314 3.58864 -4.78771
upperback -2.6184 4.89327 3.34478
thorax -2.13822 2.60213 6.14648
lowerneck -9.83541 -2.32042 1.97485
upperneck -1.46284 -3.26602 -1.52761
head 1.1377 -1.66651 -0.937143
lclavicle -7.61945e-15 -3.18992e-14 0
lhumerus -41.7225 -10.874 99.6164
lradius 34.6335 0 0
lwrist 2.31743 0 0
lhand -10.6427 9.25628 0
lfingers 7.12502 0 0
lthumb 15.3647 38.6654 0
rclavicle -7.61945e-15 -3.18992e-14 0
rhumerus -43.0989 -4.87838 -84.5391
rradius 40.4217 0 0
rwrist 9.96107 0 0
rhand -24.0975 -22.2293 0
rfingers 7.12502 0 0
rthumb 2.38318 -52.1938 0
4
root 6.22106 16.8442 -28.128 9.10666 -2.46624 -2.99852
lfemur -20.3078 2.23083 -19.9647
ltibia 35.6893 0 0
lfoot -38.4161 3.9667 0
ltoes 38.8165 0 0
rfemur -19.1286 1.02866 19.536
rtibia 35.3831 0 0
rfoot -30.0684 -11.426 0
rtoes 20.9524 0 0
lowerback -2.39278 3.5507 -4.67375
upperback -2.59597 4.842 3.27967
thorax -2.03223 2.57018 6.02259
lowerneck -9.83066 -2.29797 1.98463
upperneck -1.50102 -3.23818 -1.47214
head 1.12564 -1.65164 -0.919761
lclavicle -2.77401e-15 -2.93135e-14 0
lhumerus -41.7224 -10.8966 99.5148
lradius 34.6735 0 0
lwrist 2.37399 0 0
lhand -10.6629 9.06624 0
lfingers 7.12502 0 0
lthumb 15.3452 38.4768 0
rclavicle -2.77401e-15 -2.93135e-14 0
rhumerus -43.0178 -4.88656 -84.6601
rradius 40.3989 0 0
rwrist 9.99311 0 0
rhand -24.2493 -22.1034 0
rfingers 7.12502 0 0
rthumb 2.23657 -52.0688 0
5
root 6.21461 16.8468 -28.1247 9.1318 -2.44806 -2.98237
lfemur -20.284 2.20941 -19.9543
ltibia 35.612 0 0
lfoot -38.3464 3.97622 0
ltoes 38.7856 0 0
rfemur -19.0139 1.29661 19.5402
rtibia 35.172 0 0
rfoot -29.971 -11.7268 0
rtoes 20.8272 0 0
lowerback -2.49932 3.51405 -4.5653
upperback -2.57455 4.79266 3.21899
thorax -1.92967 2.53927 5.90624
lowerneck -9.82644 -2.27634 1.99263
upperneck -1.5374 -3.21126 -1.42048
head 1.11421 -1.63726 -0.903319
lclavicle 2.26181e-15 -2.67035e-14 0
lhumerus -41.7231 -10.9151 99.4162
lradius 34.7024 0 0
lwrist 2.42328 0 0
lhand -10.6813 8.8812 0
lfingers 7.12502 0 0
lthumb 15.3275 38.2931 0
rclavicle 2.26181e-15 -2.67035e-14 0
rhumerus -42.9398 -4.89479 -84.7745
rradius 40.3785 0 0
rwrist 10.0246 0 0
rhand -24.4018 -21.9763 0
rfingers 7.12502 0 0
rthumb 2.08934 -51.9425 0
6
root 6.20845 16.8495 -28.1213 9.15591 -2.43084 -2.96739
lfemur -20.2592 2.18878 -19.9439
ltibia 35.5354 0 0
lfoot -38.2798 3.98563 0
ltoes 38.7595 0 0
rfemur -18.8994 1.56407 19.5446
rtibia 34.9627 0 0
rfoot -29.8754 -12.0247 0
rtoes 20.7149 0 0
lowerback -2.60353 3.47838 -4.46098
upperback -2.55389 4.74478 3.16165
thorax -1.8297 2.50915 5.79555
lowerneck -9.82261 -2.25534 1.99929
upperneck -1.57244 -3.18505 -1.37168
head 1.10325 -1.62325 -0.887582
lclavicle 7.44041e-15 -2.40753e-14 0
lhumerus -41.7242 -10.9306 99.3197
lradius 34.723 0 0
lwrist 2.4671 0 0
lhand -10.6982 8.69991 0
lfingers 7.12502 0 0
lthumb 15.3112 38.1131 0
rclavicle 7.44041e-15 -2.40753e-14 0
rhumerus -42.864 -4.90305 -84.8839
rradius 40.3597 0 0
rwrist 10.0556 0 0
rhand -24.5547 -21.8483 0
rfingers 7.12502 0 0
rthumb 1.94165 -51.8152 0
